<svg width="16" height="16" viewBox="0 0 16 16" fill="none" xmlns="http://www.w3.org/2000/svg">
<path d="M15.5133 6.02C15.1333 5.58 14.58 5.33333 14 5.33333H13.94C13.6067 2.34 11.06 0 7.98 0C4.9 0 2.34666 2.34 2.01333 5.33333H1.98C1.4 5.33333 0.846663 5.58667 0.466663 6.02C0.0866631 6.46 -0.0800036 7.04 -3.55393e-06 7.61333L0.706663 12.56C0.986663 14.52 2.68666 15.9933 4.66666 15.9933H11.3133C13.2933 15.9933 14.9933 14.52 15.2733 12.56L15.98 7.61333C16.06 7.04 15.8933 6.46 15.5133 6.02ZM7.98 1.33333C10.3267 1.33333 12.2733 3.07333 12.6 5.33333H3.36C3.68666 3.07333 5.63333 1.33333 7.98 1.33333ZM14.66 7.42667L13.9533 12.3733C13.7667 13.68 12.6333 14.66 11.3133 14.66H4.66666C3.34666 14.66 2.21333 13.6733 2.02666 12.3733L1.32 7.42667C1.29333 7.23333 1.34666 7.04667 1.47333 6.89333C1.6 6.74667 1.78 6.66 1.98 6.66H14C14.1933 6.66 14.3733 6.74 14.5 6.88667C14.6267 7.03333 14.6867 7.22667 14.6533 7.42L14.66 7.42667Z" fill="white"/>
<path d="M14.66 7.42667L13.9533 12.3733C13.7667 13.68 12.6333 14.66 11.3133 14.66H4.66666C3.34666 14.66 2.21333 13.6733 2.02666 12.3733L1.32 7.42667C1.29333 7.23333 1.34666 7.04667 1.47333 6.89333C1.6 6.74667 1.78 6.66 1.98 6.66H14C14.1933 6.66 14.3733 6.74 14.5 6.88667C14.6267 7.03333 14.6867 7.22667 14.6533 7.42L14.66 7.42667Z" fill="white"/>
</svg>
