<svg width="16" height="16" viewBox="0 0 16 16" fill="none" xmlns="http://www.w3.org/2000/svg">
<g clip-path="url(#clip0_1_385)">
<path d="M15.5133 6.02C15.1333 5.58 14.58 5.33333 14 5.33333H13.94C13.6067 2.34 11.06 0 7.97999 0C4.89999 0 2.34666 2.34 2.01332 5.33333H1.97999C1.39999 5.33333 0.846655 5.58667 0.466655 6.02C0.0866555 6.46 -0.0800112 7.04 -1.11833e-05 7.61333L0.706655 12.56C0.986655 14.52 2.68666 15.9933 4.66666 15.9933H11.3133C13.2933 15.9933 14.9933 14.52 15.2733 12.56L15.98 7.61333C16.06 7.04 15.8933 6.46 15.5133 6.02ZM7.97999 1.33333C10.3267 1.33333 12.2733 3.07333 12.6 5.33333H3.35999C3.68666 3.07333 5.63332 1.33333 7.97999 1.33333ZM14.66 7.42667L13.9533 12.3733C13.7667 13.68 12.6333 14.66 11.3133 14.66H4.66666C3.34666 14.66 2.21332 13.6733 2.02666 12.3733L1.31999 7.42667C1.29332 7.23333 1.34666 7.04667 1.47332 6.89333C1.59999 6.74667 1.77999 6.66 1.97999 6.66H14C14.1933 6.66 14.3733 6.74 14.5 6.88667C14.6267 7.03333 14.6867 7.22667 14.6533 7.42L14.66 7.42667Z" fill="black"/>
</g>
<defs>
<clipPath id="clip0_1_385">
<rect width="16" height="16" fill="white"/>
</clipPath>
</defs>
</svg>
